<svg xmlns="http://www.w3.org/2000/svg" width="26.423" height="22.25" viewBox="0 0 26.423 22.25"><defs><style>.a{stroke:#000;stroke-width:0.25px;}</style></defs><g transform="translate(-3060.266 -1358.228)"><path class="a" d="M3242.7,1717.931a1.885,1.885,0,1,0-1.885,1.885A1.887,1.887,0,0,0,3242.7,1717.931Zm-3.122,0a1.236,1.236,0,1,1,1.237,1.236A1.238,1.238,0,0,1,3239.578,1717.931Z" transform="translate(-169.453 -339.464)"/><path class="a" d="M3448.887,1717.931a1.885,1.885,0,1,0-1.885,1.885A1.887,1.887,0,0,0,3448.887,1717.931Zm-3.122,0a1.236,1.236,0,1,1,1.236,1.236A1.238,1.238,0,0,1,3445.766,1717.931Z" transform="translate(-365.025 -339.464)"/><path class="a" d="M3086.225,1362.287H3067.14l-.977-3.682a.338.338,0,0,0-.325-.252h-5.11a.34.34,0,0,0,0,.681h4.851l4.4,16.57a.338.338,0,0,0,.325.252h12.447a.34.34,0,0,0,0-.681h-12.187l-.678-2.555h12.865a.337.337,0,0,0,.317-.224l3.478-9.652a.343.343,0,0,0-.04-.312A.336.336,0,0,0,3086.225,1362.287Zm-1.105,2.411h-10.86a.34.34,0,0,0,0,.681h10.615l-.625,1.734h-10.86a.34.34,0,0,0,0,.681H3084l-.625,1.734h-10.86a.341.341,0,0,0,0,.681h10.614l-.623,1.73H3069.7l-2.38-8.971h18.422Z" transform="translate(0 0)"/></g></svg>