<svg xmlns="http://www.w3.org/2000/svg" width="18" height="18.001" viewBox="0 0 18 18.001"><defs><style>.a{fill:#004a4c;}</style></defs><path class="a" d="M9,6.623a4.615,4.615,0,1,0,4.614,4.615A4.607,4.607,0,0,0,9,6.623Zm0,7.616a3,3,0,1,1,3-3,3.006,3.006,0,0,1-3,3Zm5.879-7.8A1.076,1.076,0,1,1,13.8,5.358,1.074,1.074,0,0,1,14.876,6.434Zm3.056,1.093a5.328,5.328,0,0,0-1.454-3.772A5.36,5.36,0,0,0,12.707,2.3c-1.486-.084-5.939-.084-7.425,0a5.352,5.352,0,0,0-3.771,1.45A5.346,5.346,0,0,0,.058,7.523c-.084,1.486-.084,5.941,0,7.427a5.328,5.328,0,0,0,1.454,3.772,5.367,5.367,0,0,0,3.771,1.454c1.486.084,5.939.084,7.425,0a5.325,5.325,0,0,0,3.771-1.454,5.363,5.363,0,0,0,1.454-3.772c.084-1.486.084-5.937,0-7.423Zm-1.919,9.018A3.037,3.037,0,0,1,14.3,18.256c-1.185.47-4,.362-5.3.362s-4.124.1-5.3-.362a3.037,3.037,0,0,1-1.711-1.711c-.47-1.185-.361-4-.361-5.306s-.1-4.125.361-5.306A3.037,3.037,0,0,1,3.692,4.221c1.185-.47,4-.362,5.3-.362s4.124-.1,5.3.362a3.037,3.037,0,0,1,1.711,1.711c.47,1.185.361,4,.361,5.306S16.482,15.364,16.012,16.545Z" transform="translate(0.005 -2.238)"/></svg>