<svg xmlns="http://www.w3.org/2000/svg" width="15.996" height="15.996" viewBox="0 0 15.996 15.996"><defs><style>.a{fill:#004a4c;}</style></defs><g transform="translate(-4.5 -4.5)"><path class="a" d="M15.83,5.833a3.342,3.342,0,0,1,3.332,3.332V15.83a3.342,3.342,0,0,1-3.332,3.332H9.165A3.342,3.342,0,0,1,5.833,15.83V9.165A3.342,3.342,0,0,1,9.165,5.833H15.83m0-1.333H9.165A4.679,4.679,0,0,0,4.5,9.165V15.83A4.679,4.679,0,0,0,9.165,20.5H15.83A4.679,4.679,0,0,0,20.5,15.83V9.165A4.679,4.679,0,0,0,15.83,4.5Z" transform="translate(0 0)"/><path class="a" d="M24.637,11.024a1.012,1.012,0,1,1,1.012-1.012A1.009,1.009,0,0,1,24.637,11.024Z" transform="translate(-7.814 -1.839)"/><path class="a" d="M15.283,12.594a2.688,2.688,0,1,1-2.688,2.688,2.691,2.691,0,0,1,2.688-2.688m0-1.344a4.033,4.033,0,1,0,4.033,4.033,4.034,4.034,0,0,0-4.033-4.033Z" transform="translate(-2.785 -2.785)"/></g></svg>