<svg xmlns="http://www.w3.org/2000/svg" width="92.02" height="30" viewBox="0 0 92.02 30"><defs><style>.a{fill:#002d33;}</style></defs><path class="a" d="M0,.908A.946.946,0,0,1,.92,0H3.729a.946.946,0,0,1,.92.908V10.993A11.8,11.8,0,0,1,9.3,9.943c5.375,0,9.54,4.441,9.54,10.029C18.838,25.463,14.915,30,9.782,30a8.7,8.7,0,0,1-6.15-2.675L3.245,28.71c-.146.478-.436.812-.872.812H.92A.946.946,0,0,1,0,28.615ZM9.2,25.892c3.1,0,5.133-2.722,5.133-5.921A5.58,5.58,0,0,0,8.814,14.1,8.364,8.364,0,0,0,4.6,15.2v7.833A5.209,5.209,0,0,0,9.2,25.892Z"/><path class="a" d="M314.819,134.6a.953.953,0,0,1,.92-.92h2.76a.953.953,0,0,1,.92.92v17.531a.953.953,0,0,1-.92.92h-2.76a.953.953,0,0,1-.92-.92Z" transform="translate(-290.299 -123.537)"/><path class="a" d="M471.182,127.562a10.177,10.177,0,1,1-9.782,10.121A10.017,10.017,0,0,1,471.182,127.562Zm0,16.173a5.766,5.766,0,0,0,5.472-6.052,5.488,5.488,0,1,0-10.944,0A5.766,5.766,0,0,0,471.182,143.735Z" transform="translate(-425.57 -117.901)"/><path class="a" d="M784.8,128.966a.953.953,0,0,1,.92-.92h1.356a.844.844,0,0,1,.823.581l.533,1.646a9,9,0,0,1,6.392-2.711,7.186,7.186,0,0,1,6.247,3.1,10.785,10.785,0,0,1,7.022-3.1c5.908,0,7.99,4.164,7.99,9.2V146.5a.919.919,0,0,1-.92.92h-2.711a.919.919,0,0,1-.92-.92v-9.928c0-3.051-1.4-4.794-4.02-4.794a6.974,6.974,0,0,0-4.987,2.373,13.561,13.561,0,0,1,.145,2.325V146.5a.952.952,0,0,1-.92.92h-2.566a.92.92,0,0,1-.921-.92v-9.928c0-3.1-1.4-4.794-4.116-4.794a5.5,5.5,0,0,0-4.794,2.906V146.5a.953.953,0,0,1-.92.92h-2.712a.953.953,0,0,1-.92-.92Z" transform="translate(-724.061 -117.901)"/><path class="a" d="M308.082,15.119a2.781,2.781,0,0,1,2.76-2.856,2.833,2.833,0,1,1,0,5.665A2.77,2.77,0,0,1,308.082,15.119Z" transform="translate(-284.09 -11.294)"/></svg>